<svg version="1" xmlns="http://www.w3.org/2000/svg" width="682.667" height="682.667" viewBox="0 0 512.000000 512.000000"><path d="M242 4.3c-.3.3-3.1.7-6.3 1.1-9.4 1-18 3.3-30 8.1-6.1 2.5-13.7 5.4-16.7 6.6-20.1 7.3-39.2 21.3-56.8 41.4-6.6 7.5-16.2 22.1-16.6 25.2-.3 1.6-.9 4.4-1.6 6.3-1.1 3.6-1.7 5.7-2.7 10-.7 3.5-.7 18.7.1 23.2.3 2.1.9 5.5 1.2 7.5 2.6 17.2 14.3 56.6 19.7 66.5 1.1 2.1 1.9 3.9 1.6 4-.2.2-1.7 1-3.3 1.8-10.8 5.5-9.7 24.3 2.9 50.5 9.2 19.4 21.1 30.2 35.3 32.2l5.4.8 2.8 8c1.5 4.4 4.4 12 6.5 17 2 4.9 3.9 9.9 4.1 11 .2 1.1.7 3.6 1.1 5.5.4 1.9.7 3.9.8 4.5 0 .5-2.6 3.7-6 7-3.9 3.9-6.5 7.4-7.3 10-1.3 4.3-7.4 11.7-21.7 26.2-11.2 11.4-24 20.9-36.1 27-5.2 2.6-9.4 5.1-9.4 5.5 0 .5.5.6 1.1.2.8-.4.9.1.4 1.7-.5 1.3-.9 4.4-1 6.9-.5 8.4 4.8 14.7 15.5 18.5 5 1.8 18.1 4.4 29.9 6.1 2.5.3 6 .8 7.6 1.1 1.7.2 4.8.6 7 .9 10.9 1.1 23.5 3.6 35.2 6.9 14.6 4.2 17.6 6.4 20.9 15.3 3.5 9.3 8.9 15.3 17.4 19.4 14.1 6.7 26.4 10.5 40.5 12.4 2.8.3 5.2.8 5.5.9 3 1.8 58 2.7 71.4 1.2 24.5-2.7 43.5-10.9 48.4-20.9 2.1-4.1 2.4-6.4 2.8-20.5.2-9.6 1-17.8 1.9-20.9 1.6-5.6 3.5-7.5 17.5-16.6 8.6-5.7 12-9.6 12-14 0-3.1-3.6-5.1-19-10.8-6.3-2.3-17.8-7.2-25.5-11-7.7-3.7-15.4-7.1-17.2-7.4-3.5-.8-3.8-1.4-4.8-7.9-.5-3.3-.3-5.1.9-6.9.9-1.3 2.9-7.3 4.4-13.4 1.6-6 4.6-16.1 6.6-22.4 2.1-6.3 3.9-12.2 4.1-13 .2-.8.8-3.5 1.4-6 2.8-12.4 3.6-20.7 3.5-38 0-13-.3-20.5-2-43.5-1.1-16.1-4.3-28.2-11.6-43.5-3.5-7.4-4-9.6-4.4-17-.2-4.7-.5-10.3-.8-12.5-.2-2.2-.7-11.4-1.1-20.5-1-25.2-1.6-30.7-4.6-43.6-1.8-8.1-6.2-20.7-7.8-22.8-.4-.6-1.6-3.4-2.6-6.1-5.3-14.3-19.5-26.1-48.5-40.2-34-16.5-33-16-42.9-17.8C264 4.3 243 3.4 242 4.3z"/></svg>