<svg version="1" xmlns="http://www.w3.org/2000/svg" width="933.333" height="933.333" viewBox="0 0 700.000000 700.000000"><path d="M326.9 11.4c-.2.2-4.2.7-8.9 1.1-4.7.4-9.4.9-10.5 1.1-1.1.2-4.2.6-7 .9-18.2 2.1-60.7 13.3-75 20-1.6.7-5.5 2.3-8.5 3.5-18.3 7.3-55.3 28.5-68.4 39.1-.6.5-5.8 4.6-11.6 9.1-10.7 8.4-35.6 32.5-44.7 43.3-13.4 15.8-20.9 26.4-32.7 45.7-18.6 30.5-34.4 70.1-41 102.8-.3 1.4-.7 3.5-1 4.6-.2 1.2-.7 3.7-1 5.5-.3 1.9-.8 4.3-1 5.5-.2 1.2-.7 4.5-1.1 7.4-.4 2.9-.9 6.2-1.1 7.4-2.5 12.6-2.5 69.4.1 83.6.1.8.6 4 1 7s1.6 10 2.6 15.5c10.9 57 37.6 112 76.1 157 5.5 6.5 27.7 28.8 34.8 34.9 24.5 21.3 56.7 41.5 87 54.6 4.1 1.8 8.9 3.8 10.5 4.5 4.1 1.8 23.2 8.4 27.5 9.5 1.9.5 5.3 1.4 7.5 2 6.2 1.7 6.6 1.8 13.7 3.4 7.5 1.8 19.8 4.1 27.1 5.1 2.7.4 5.7.8 6.6 1 10.2 2 61 2.8 73.6 1.2 3.3-.4 8-1 10.5-1.3 37.4-4.4 73.8-15.5 110-33.5 20-10 45.6-26.2 58.9-37.4 31.8-26.6 53.2-50 72.3-79.1 10.6-16.1 22.1-37.5 28.2-52.4 1.5-3.6 3.3-7.9 4.1-9.5.7-1.7 3.4-9.1 5.9-16.5 6.3-18.9 11.2-39.3 14.1-59.5.4-2.2.8-5 1-6.3 1.3-7.7 2-23.5 2-43.2-.1-31.6-2-48.9-8.6-77-14.7-62.3-44.7-116-90.3-161.5-8.3-8.3-20-19-26.1-23.8-6-4.8-11.6-9.2-12.2-9.7-2.2-1.8-23.3-16-23.8-16-.2 0-2.9-1.5-5.8-3.4-5-3.2-34.9-18.6-36.2-18.6-.3 0-2.4-.9-4.8-1.9-18.5-8.4-52.8-18.2-76.2-21.8-1.6-.2-4.1-.6-5.5-.9-1.4-.2-5.2-.6-8.5-1-3.3-.3-7.1-.8-8.5-1.1-2.8-.6-54.6-1.4-55.1-.9zm38.1 44c19.4.7 40.8 3.8 60.6 9 29 7.5 60.7 21.8 87.2 39.3 30.8 20.3 60.1 49.2 81.4 80.3 9.7 14.1 27.8 47.2 27.8 50.8 0 .5.8 2.6 1.9 4.8 5.7 12.1 15.3 46.2 17.5 62.4.4 2.5.8 5.4 1 6.5.2 1.1.7 5.4 1.1 9.5.4 4.1.9 8.6 1.1 10 .4 3.3.5 38.6 0 42.5-.2 1.6-.7 6.6-1.1 11-.4 4.4-.8 8.2-1 8.5-.1.3-.6 3.2-1 6.5-.3 3.2-.8 6.2-1 6.5-.2.3-.6 2.3-.9 4.5-.4 2.2-1.5 7.6-2.6 12s-2.2 8.9-2.5 9.9c-3.9 16.2-16.6 46.7-27.4 65.6-6.7 11.8-8 13.8-16.5 25.9-35.4 50-87 88.7-144.6 108.4-24.3 8.3-44.4 12.4-74 15.3-5.4.5-41.2.5-44 0-1.4-.2-5.6-.7-9.5-1.1-3.8-.3-9.5-1-12.5-1.5s-7.1-1.2-9-1.5c-28.7-4.8-69.3-19.5-92-33.4-1.9-1.1-4.6-2.6-6-3.3-4.1-2-20.8-13.5-31-21.4-24-18.3-49.3-46-66.2-72.4-22.1-34.4-37.9-75.5-43.2-112.5-.4-2.2-.8-5.1-1.1-6.5-.2-1.4-.7-5.6-1-9.3-.4-3.7-.8-7.8-1.1-9-.5-2.5-.5-39.6 0-44.2.2-1.7.6-6.2 1-10 1-9.3 4.3-28.7 6-35.3.8-2.8 1.3-5.2 1.1-5.2-.2 0 .5-2.6 1.6-5.8 1.1-3.1 1.9-5.8 1.9-6-.6-2.6 11.4-33.2 19-48.2 9.2-18.5 16-29.3 28.9-46.5 9.3-12.5 11.5-14.9 27.6-31.1 36.9-37.2 81.7-62.8 133.5-76.3 11.3-2.9 24-5.5 33-6.6 2.5-.3 6.1-.8 8-1 1.9-.3 9.4-.8 16.5-1.1 7.2-.4 13.1-.8 13.3-.9.2-.2 1.1-.1 2 .1.9.1 8.2.5 16.2.8z"/><path d="M498 172c-3 1-22.1 6.6-42.5 12.5-20.3 5.9-37.2 10.9-37.4 11.1-1 1 8.7 32.7 9.8 32 1.4-.9 19.3-4.7 19.8-4.2.2.2 0 1.2-.6 2.3-.6 1-5.4 11.9-10.7 24.3-13.4 31.5-28.1 65.6-30.8 71.5-1.2 2.7-3.3 7.6-4.6 10.7-1.3 3.2-2.5 5.6-2.7 5.4-.3-.2-2-5.7-3.9-12.2-1.9-6.6-4.1-14.2-4.9-16.9-8.2-28-15.4-53.6-15.8-56.1-1-6.7 2.3-10 15.4-15.1l4.6-1.8-4.2-14.8c-2.4-8.1-4.5-15-4.7-15.2-.2-.3-6.7 1.4-14.4 3.6-7.6 2.2-17.7 5.1-22.4 6.4-18.7 5.3-53.2 15.4-53.5 15.7-.1.2 1.8 7.4 4.3 16.1l4.5 15.8 3.1-.6c1.7-.3 6.6-1.4 10.9-2.4 5.6-1.3 8-1.6 8.3-.7.6 1.7 4.3 14.3 6 20.6.8 3 2.6 9.1 3.9 13.5 1.3 4.4 6.7 23.1 12 41.5s10.5 36.2 11.5 39.5c1 3.3 5.5 18.9 10 34.6 7.8 27.5 8.1 28.7 6.7 32-1.4 3.5-4.3 5.4-14.9 9.8l-4.7 1.9 3.4 11.4c1.8 6.2 3.5 12.4 3.9 13.8 1.2 5.2 1.6 5.2 11.2 2.4 4.9-1.4 10.3-3 11.9-3.4 2.7-.7 45.5-13.1 62.4-18.1 3.5-1 6.5-2 6.6-2.1.1-.2-1.8-7.4-4.4-16l-4.6-15.8-3.5.7c-1.9.3-6.5 1.4-10.2 2.3-3.7.9-7.2 1.4-7.8 1-1-.6-10-31-10-34 0-.9 3.6-10 8-20.1 12.4-28.6 13.1-30.1 13.9-29.3.3.3 10 9.7 21.5 20.7 11.5 11.1 24.4 23.6 28.7 27.7 7.8 7.6 10.1 11.8 8.2 14.9-.5.9-4.2 3-8.2 4.7-3.9 1.7-7.4 3.4-7.7 3.7-.5.4 7.2 28.2 8.2 29.9.3.4 2.9-.2 5.9-1.2 3-1 5.5-1.7 5.5-1.5 0 .3 1.2 0 2.6-.5 2.5-1 25.2-7.8 28.4-8.5.8-.2 5.6-1.5 10.5-3 5-1.5 16-4.7 24.5-7.2s16.3-4.7 17.3-5c.9-.3 1.7-.8 1.7-1.2 0-.8-7.7-27.1-8.5-29.4-.9-2.1-1.5-2.1-8.5-.2-10.5 2.8-12.2 2.8-15.5-.2-4.6-4.1-25.8-23.5-27.6-25.3-1.8-1.7-6-5.5-22.8-21-6.3-5.8-12.2-11.2-13.1-12-.9-.8-6.3-5.8-12-11s-12.6-11.5-15.2-14l-4.9-4.5 2.1-5c1.2-2.8 2.8-6.4 3.5-8 .7-1.7 7.2-17 14.5-34 20.6-48.4 19.4-46.4 31.2-51 4-1.5 7.4-2.9 7.5-3 .2 0-.8-3.7-2.1-8.1-1.3-4.3-3.3-11.2-4.5-15.2-1.2-4-2.7-7.2-3.4-7.1-.7 0-3.7.9-6.7 1.9zM221 251.2c-18.8 1.6-37.7 6.1-53.1 12.8-23.8 10.3-42.2 28.7-48.9 48.9-6 17.9-3.7 39.3 6.3 59.9 3.2 6.8 5.8 10.4 11.7 16.2 8.7 8.8 15.8 12.7 30.1 16.5 12.2 3.2 21.4 4.2 43.9 4.4 30.5.4 38.5 1.7 48.3 7.4 8.4 5 13.8 15.9 14 28.2.3 21.7-15.3 34.1-52.1 41.5-8 1.6-17.9.7-20.6-1.9-1.6-1.7-9.6-25.6-9.6-29 0-1.7-1.9-1.3-13 2.9-4.7 1.8-12.2 4.6-16.7 6.3-4.6 1.7-8.3 3.4-8.3 3.9 0 1.9 16.3 57.3 17.1 58.4 1.1 1.4 7 1.8 25.9 1.8 16.8.1 21.1-.3 37-3.5 65.2-13 100.3-53.9 88-103-7.2-28.9-21.1-44.6-47.1-52.9-14.2-4.6-21.4-5.7-43.1-6.5-31.5-1.3-36-1.5-40.4-2.5-13-2.9-22-11.8-25-24.6-4.5-19.5 5.9-33.1 31.6-41.3 8.5-2.7 19.6-4.8 23.9-4.5 8.7.7 10.5 3.2 15.7 21.9 1.5 5.5 2.8 10.1 2.9 10.3.1.1 5.8-1.8 12.6-4.3s15.2-5.5 18.7-6.7c3.4-1.1 6.2-2.5 6.2-3s-2.1-8-4.6-16.6c-2.5-8.6-4.7-16.4-4.9-17.2-.8-3.5-5.4-18.7-6.2-20.5-.9-2.3-.9-2.3-10.6-3.1-11.7-.9-19.6-1-29.7-.2z"/></svg>