<svg version="1" xmlns="http://www.w3.org/2000/svg" width="933.333" height="933.333" viewBox="0 0 700.000000 700.000000"><path d="M329.9 69.4c-.2.2-3.8.7-7.9 1-11.1 1-17.3 2-33 5.1-29.9 6-66.1 21.5-95 40.8-18.2 12.1-26.2 18.8-43.5 36.2-41.6 41.6-69.5 96.4-77.9 152.7-.8 5.7-1.8 12.1-2.1 14.3-.4 2.2-.8 14.1-1 26.5-.4 31.1 1.6 47.3 9.9 80 1.6 6.2 7.5 23 11.2 31.8 29.8 71.2 88.6 128 159.9 154.7 12.7 4.8 30.5 10 40.3 11.9 4.3.9 8.6 1.7 9.7 2 1.1.2 4.5.7 7.5 1.1 3 .4 6.3.9 7.3 1.1 12.8 2.3 57.4 2.3 71.3-.1 12.3-2.1 26.1-4.9 32.8-6.6 50.1-12.7 97.2-40.2 132.7-77.4 10.1-10.7 12.8-13.8 21.7-25.5 31.9-41.9 51.3-92.2 55.9-145.1.9-10.6.9-36.9 0-47.6-7.6-87.3-54.1-164.7-127.8-212.6-11.5-7.5-21.7-13-41.4-22.2-6-2.9-27.9-10.5-34.4-12.1-.9-.2-5-1.2-9.1-2.3-8.1-2.2-22.4-4.8-30.5-5.7-2.7-.3-6.1-.8-7.5-1.1-2.9-.6-48.5-1.5-49.1-.9zm40.6 15c53.7 4.4 102.9 23.7 145 57 12.3 9.7 31.9 29.2 40.9 40.6 3.7 4.7 7.4 9.2 8.1 10.1 3.2 4.1 11.7 17.3 16.6 25.9 6 10.5 15.9 31.2 15.9 33.3 0 .7.4 1.7.9 2.3 1.4 1.5 8 22 10.5 32.8 2.6 10.9 3.2 13.7 4.6 23.6.6 3.6 1.3 7.8 1.6 9.5.3 1.6.7 13.3.9 26 .3 25.3-.8 39-5 58.5-.9 4.1-1.8 8.2-2 9-.9 4.5-2.7 10.2-3 9.8-.2-.2-.5-1.5-.7-3-.2-1.5-.7-3-1-3.3-.3-.4-3.2-.1-6.4.4-3.3.6-7.2 1.4-8.9 1.6-1.6.3-3.6.8-4.3 1-.8.3-3.6.8-6.2 1.1l-4.8.6-37.9-26.3c-20.8-14.5-46.2-32.2-56.5-39.4-10.3-7.1-27.3-18.9-37.7-26-10.5-7.2-19-13.4-19.1-13.9 0-.7 15.7-21.1 19.5-25.2.5-.6 2.2-2.6 3.7-4.5 3.1-4 22.1-28 51.7-65.1 13.3-16.8 22.1-27 23.4-27.3 3.3-.7 16.7-3.2 21.2-4 7.6-1.2 7.3-.7 5.8-8.8-2.4-12.7-2.1-11.9-5.1-11.2-1.5.3-4 .8-5.7 1-1.6.3-4.1.8-5.5 1-1.4.3-3.8.8-5.5 1-1.6.3-5.2 1-8 1.5-2.7.6-6.3 1.2-8 1.5-1.6.2-4 .6-5.1.9-1.2.2-3.7.7-5.5 1-4.4.7-7.5 1.3-17.9 3.2-4.7.9-9.6 1.7-11 1.9-1.4.2-4.9.9-7.9 1.4-2.9.6-5.5 1.1-5.8 1.1-.6 0 .8 9.2 1.9 12 .5 1.4.9 2.6.9 2.7-.1.2-.1 1.3-.1 2.4 0 2 .4 2.1 4.3 1.6 2.3-.4 5.3-.9 6.7-1.2 3-.7 4.8-1 11.5-2 2.8-.4 5.3-.9 5.8-1.2.4-.2.7 0 .7.6 0 .5-.3 1.1-.8 1.3-.4.1-2.3 2.3-4.2 4.8-1.9 2.5-4 5.2-4.7 6-.7.8-3.4 4.2-6 7.5-51.4 64.8-80.7 101.4-80.9 101.2-.3-.3-.9-3.2-3-14.7-.8-4.7-3.5-19.8-6-33.5-2.6-13.8-4.8-26.4-5-28-.3-1.7-.7-4.1-1-5.5-.3-1.4-.8-3.6-1-5-.3-1.4-.9-4.9-1.4-7.9-.6-3-.8-5.6-.5-5.9.4-.4 5.5-1.5 13-2.8 8.9-1.4 20.5-3.6 20.5-3.8 0-.1-.4-2.7-1-5.7-.5-3-1.2-7-1.5-8.9-.3-1.9-.8-3.6-1-3.8-.3-.3-8.9.9-15.5 2.2-1.4.3-9 1.7-17 3.1-8 1.4-15.6 2.7-17 3-1.4.3-3.8.8-5.5 1-1.6.3-6.8 1.3-11.5 2.1-4.7.9-9.6 1.8-11 2-3.6.6-19.2 3.5-21 3.9-.8.2-2.5.4-3.7.4-1.6.1-2.3.7-2.3 2 0 1.8-.9 1.9-18.7 1.9-27.2-.1-47.6 2.4-65.3 8.2-47.4 15.3-67.8 47.7-56.9 90.5 7.4 28.9 24.6 45 56.1 52.5 10 2.3 23.9 4.7 33 5.5 3.7.3 7.7.8 9 1 1.3.2 5.2.6 8.8 1 6.7.7 8.2.8 16.5 1.9 4.4.6 10.4 1.6 18.6 3.1 10.8 2 22.6 7.2 27.9 12.4 13 12.6 16.7 41 7.3 57-8.4 14.4-28.6 25.3-55.1 29.7-7.9 1.4-30.1 1.2-36.1-.2-19.4-4.6-32.8-18.7-38.6-40.7-2.1-7.7-1.3-7.4-13.7-5.1-8.5 1.6-8.7 1.7-8.4 4.2.4 3.3 5 29.1 7.7 42.8 1 5.6 1.9 11.1 1.9 12.2 0 3.1 1.8 3.9 13.6 5.6 34.6 5 64.5 3.9 95.9-3.4 13.6-3.2 31.6-10.4 40.8-16.4 2.6-1.8 3.7-1.3 3.7 1.6 0 1.5.5 1.7 2.8 1.3 1.5-.3 4.3-.8 6.2-1.1 1.9-.3 5.4-1 7.8-1.5 2.3-.5 5.9-1.2 8-1.5 2-.3 4.4-.7 5.2-.9.8-.2 3.3-.7 5.5-1 2.3-.3 5.2-.8 6.5-1.1 1.4-.3 3.4-.6 4.5-.8 1.1-.2 8.3-1.5 16-2.9 7.7-1.5 15.8-2.9 18-3.3 5.9-.9 23.8-4.4 24.2-4.7.2-.3-2.8-18-3.2-18.5-.2-.2-15.8 2.4-25.5 4.3-1.4.3-3.9.8-5.5 1.1l-3.1.5-1.8-10.3c-1-5.7-2.4-13.5-3.1-17.3-.8-3.9-2.3-12.4-3.5-19-1.2-6.6-2.6-14.5-3.1-17.5-.6-3-1.2-6.9-1.5-8.5-.7-4.1-4.2-22.9-5.5-29.3-.6-3-.9-5.5-.7-5.7.2-.3 5.2 3.1 25.8 17.5.8.6 6.9 4.8 13.5 9.3 6.6 4.6 27.8 19.3 47 32.7 19.3 13.4 39.3 27.3 44.5 30.9 5.2 3.6 9.7 6.9 9.8 7.3.2.4.8.8 1.4.8.5 0 2.5 1.2 4.3 2.6l3.5 2.6 9.2-1.6c5.1-.9 10.4-1.8 11.8-2.1 3.4-.7 13.9-2.6 17-3.1 1.4-.2 6-1.1 10.4-2 4.3-.8 8-1.4 8.2-1.2.7.8-10.1 26-15.7 36.7-20.7 39.3-49.7 71.6-86.9 97.3-11.8 8.2-17.2 11.3-32.9 19-15.9 7.7-36.7 15.4-49.1 18.3-.8.1-3.5.8-6 1.5-5.3 1.4-4.9 1.3-17 3.4-16.3 2.7-18 2.8-41 3.1-28.3.4-44.9-1.6-73.5-8.8-29.7-7.6-68.2-27.1-95.7-48.7-10.4-8.2-34.5-32.2-42.1-42-38.3-49.4-57.8-104.9-58-165.4-.1-10.1 1-29.3 1.8-33.1.3-1.1.7-3.8 1-6 1.1-8 2.5-16.4 3-17.7.2-.7.6-2.4.9-3.8 1.2-7.4 7.2-26.7 12.3-39.5 9.1-22.9 27.9-54.4 42.3-70.9 13.5-15.5 26.1-27.8 41.1-39.9 14-11.3 42.3-27.8 60.9-35.5 15.9-6.6 39.8-13.9 51.4-15.6 2.1-.4 4.1-.8 4.5-1 .3-.2 3.1-.7 6.2-1 3.1-.4 6.7-.9 8-1.1 1.3-.3 7.4-.8 13.4-1.1 6.1-.4 11.1-.7 11.2-.8.4-.4 21.7.2 28.8.8zm-31.7 155.3c1.9 11.2 4.1 23 5.6 31.3.3 1.4 1.2 6.5 2 11.5.9 4.9 1.8 10.1 2.1 11.5.3 1.4 1.2 6.3 2 11 1.9 10.6 1.8 9.9 6.6 36.5 2.3 12.1 4.3 23.8 4.6 26l.4 4-2.9-4c-7.8-10.8-29.9-21.8-50.2-25-2.5-.4-5.2-.9-6-1-5.9-1-10.4-1.6-24-3-2.5-.3-6.1-.7-8-1-1.9-.2-6.2-.7-9.5-1-6.4-.7-9.5-1.1-19-2.6-15.6-2.4-27.4-6-34.6-10.5-8.3-5.2-15.7-17.3-17.4-28.5-1.4-9.1-1.4-10.5-.4-16.7 2.7-17.3 15.1-29.3 37.2-36.1 11.6-3.5 26.1-5.4 38.1-4.8 13.6.6 15.4 1 23.6 4.9 11.8 5.7 19.9 16.2 27.9 36.1.6 1.5 1.5 2.6 1.9 2.3.5-.3 2.4-.8 4.3-1.1 8.3-1.4 14.2-2.5 14.5-2.8.2-.1-.1-2-.6-4.2s-1.2-5.6-1.5-7.5c-.3-1.9-1.7-9.6-3-17-1.4-7.4-2.7-14.8-2.9-16.5-.6-3.3.6-4.5 4.4-4.5 2.5 0 2.6.4 4.8 12.7zm38.6 214.4c.5 2.5.2 2.7-4.2 3.4-2.6.3-5.7.9-7 1.2-2.3.5-2.3.5.7-4.2 2.5-3.9 5.8-11.8 6.7-15.8.1-.4.3-1 .4-1.5.1-.4.8 2.7 1.6 6.8.7 4.1 1.5 8.7 1.8 10.1z"/></svg>