<svg viewBox="0 0 600 600"
  xmlns="http://www.w3.org/2000/svg" fill-rule="evenodd" clip-rule="evenodd" stroke-linecap="round" stroke-linejoin="round" stroke-miterlimit="1.5">
  <circle cx="299.872" cy="299.849" r="234.485" fill="none" stroke="#000" stroke-width="12.5"/>
  <path d="M227.973 236.335l-2.352.424c-3.358-10.744-9.68-19.547-18.967-26.41-9.286-6.863-20.302-9.143-33.046-6.842-8.332 1.505-15.362 4.896-21.09 10.173-5.728 5.278-9.717 11.78-11.966 19.505-2.249 7.726-2.548 16.161-.897 25.304 1.28 7.088 3.47 13.19 6.57 18.306a42.965 42.965 0 0011.967 12.876c4.878 3.468 10.44 6.521 16.686 9.159 6.247 2.638 14.625 5.872 25.136 9.703 17.532 6.275 31.53 13.162 41.995 20.661 10.464 7.498 17.125 19.158 19.982 34.978 1.743 9.657 1.05 19.409-2.082 29.257-3.131 9.847-8.981 18.515-17.549 26.003-8.568 7.488-19.959 12.515-34.173 15.082-8.921 1.611-16.993 2.034-24.217 1.27-7.224-.764-14.69-2.307-22.397-4.628-3.127-.496-5.229-.647-6.307-.452-2.059.372-3.268 1.385-3.627 3.041-.359 1.657-.613 5.15-.764 10.481l-2.5.452-10.268-56.862 2.5-.451c6.534 16.005 15.669 27.35 27.404 34.036 11.734 6.686 24.905 8.71 39.512 6.072 10.979-1.983 19.388-5.729 25.226-11.238 5.837-5.51 9.474-11.577 10.91-18.201 1.436-6.624 1.597-13.018.484-19.182-2.3-12.739-7.879-22.472-16.737-29.2-8.857-6.728-21.595-12.941-38.213-18.638-11.467-4.082-19.997-7.316-25.59-9.7-5.594-2.385-11.436-5.732-17.529-10.042s-11.303-9.761-15.632-16.352c-4.328-6.591-7.327-14.509-8.996-23.755-1.93-10.684-1.08-21.393 2.55-32.126 3.629-10.733 9.861-19.947 18.695-27.642 8.835-7.695 19.526-12.675 32.074-14.941 9.508-1.717 19.569-1.783 30.18-.199 1.717.539 3.899.569 6.545.091 3.235-.584 5.024-3.294 5.365-8.129l2.353-.425 8.765 48.541zm200.93-81.315l.473 2.619c-6.004 1.509-11.232 3.248-15.684 5.219-4.453 1.971-8.624 5.642-12.513 11.011-2.819 4.01-4.739 6.691-5.76 8.042a195.383 195.383 0 00-3.348 4.583l-60.015 89.761 107.094 88.546c8.309 6.774 15.075 10.75 20.299 11.929 5.223 1.178 11.693 1.548 19.408 1.11l.445 2.465-46.76 8.444-117.634-97.304 15.778 87.373c2.912 16.129 12.159 23.052 27.741 20.769l.445 2.465-68.67 12.4-.445-2.465c4.276-.984 7.946-2.522 11.01-4.614 3.064-2.091 5.37-5.16 6.917-9.205 1.547-4.045 1.764-9.15.651-15.314l-31.11-172.28c-1.725-9.554-5.169-15.589-10.33-18.105-5.161-2.515-10.898-3.309-17.209-2.382l-.473-2.619 68.67-12.401.474 2.62c-15.396 3.31-21.657 12.927-18.781 28.851l15.137 83.829 67.359-102.068c.037.206.177-.138.421-1.031 3.81-5.249 5.427-9.466 4.852-12.651-.649-3.595-2.405-5.612-5.268-6.05-2.863-.438-7.046-.478-12.549-.121l-.473-2.619 59.848-10.807z" fill-rule="nonzero"/>
</svg>
