<svg viewBox="0 0 2134 2134" xmlns="http://www.w3.org/2000/svg" fill-rule="evenodd" clip-rule="evenodd" stroke-linejoin="round" stroke-miterlimit="2"><path d="M1066.67 33.333c-570.834 0-1033.33 462.5-1033.33 1033.33 0 570.833 462.5 1033.33 1033.33 1033.33 570.833 0 1033.33-462.5 1033.33-1033.33 0-570.834-462.5-1033.33-1033.33-1033.33zm900 1033.33c0 494.583-400.417 900-900 900-494.584 0-900-400.417-900-900 0-494.584 400.416-900 900-900 494.583 0 900 400.416 900 900zM721.55 1473.238c92.221-26.663 127.667-76.884 106.338-150.663-11.113-38.425-39.7-60.971-85.763-67.641-24.629-4.538-55.379-6.471-92.246-5.805-36.862.663-68.021-.529-93.471-3.579-25.45-3.054-52.145-9.7-80.087-19.941-55.121-20.705-92.846-66.217-113.179-136.534-20.334-70.321-11.929-132.708 25.204-187.166 37.137-54.459 95.092-93.075 173.862-115.85 78.775-22.775 156.534-28.188 233.271-16.234l50 172.917-115.254 42.071-19.329-66.863c-3.334-11.529-7.317-19.537-11.946-24.029-12.675-12.158-41.875-11.625-87.604 1.596-45.725 13.221-77.208 31.067-94.446 53.537-17.233 22.475-20.967 50.617-11.187 84.434 7.108 24.591 22.554 43.441 46.333 56.554 15.85 8.742 37.046 13.646 63.587 14.717 26.542 1.07 54.675 1.887 84.405 2.454 29.725.566 56.6 2.787 80.625 6.666 24.02 3.884 50.116 11.325 78.283 22.338 56.879 21.029 95.762 67.662 116.65 139.904 20.887 72.242 11.392 136.613-28.483 193.108-39.875 56.5-102.275 97.025-187.196 121.58-84.925 24.554-165.754 30.854-242.496 18.9l-52.663-182.142 115.25-42.067 20.334 70.321c3.333 11.529 7.316 19.538 11.946 24.029 4.629 4.488 15.541 6.954 32.741 7.396 17.2.438 42.704-4.229 76.521-14.008zm423.292-156.113L991.521 786.846l-66.708 15.538-28.33-97.984 276.667-79.996 26.996 93.375-37.042 14.459c-21.621 8.75-29.208 24.266-22.762 46.554l73.325 253.612 152.508-353.883-65.554 15.204-28.333-97.983 269.754-77.996 26.995 93.375-37.041 14.458c-14.159 5.759-26.417 20.963-36.779 45.609l-105.7 247.916 301.037 276.463 62.096-14.208 28.333 97.987-295.112 85.325-27-93.375 34.737-13.787c14.925-5.984 20.834-14.355 17.721-25.113-1.333-4.612-5.029-10.204-11.096-16.779l-171.121-164.125L1263 1203.017l30.996 107.208 66.708-15.541 28.333 97.987-276.67 79.992-26.996-93.375 37.041-14.454c11.084-4.871 18.592-10.584 22.53-17.134 3.933-6.55 3.9-16.741-.1-30.575z" fill-rule="nonzero"/></svg>